<svg width="32" height="32" viewBox="0 0 32 32" fill="none" xmlns="http://www.w3.org/2000/svg">
<path d="M10 25V23C10 21.9391 10.4214 20.9217 11.1716 20.1716C11.9217 19.4214 12.9391 19 14 19H18C19.0609 19 20.0783 19.4214 20.8284 20.1716C21.5786 20.9217 22 21.9391 22 23V25M12 11C12 12.0609 12.4214 13.0783 13.1716 13.8284C13.9217 14.5786 14.9391 15 16 15C17.0609 15 18.0783 14.5786 18.8284 13.8284C19.5786 13.0783 20 12.0609 20 11C20 9.93913 19.5786 8.92172 18.8284 8.17157C18.0783 7.42143 17.0609 7 16 7C14.9391 7 13.9217 7.42143 13.1716 8.17157C12.4214 8.92172 12 9.93913 12 11Z" stroke="#571244" stroke-width="2" stroke-linecap="round" stroke-linejoin="round"/>
</svg>
