<svg width="32" height="32" viewBox="0 0 32 32" fill="none" xmlns="http://www.w3.org/2000/svg">
<path fill-rule="evenodd" clip-rule="evenodd" d="M4.61863 27.3813C6.57329 29.3333 9.71463 29.3333 16 29.3333C22.2853 29.3333 25.428 29.3333 27.38 27.38C29.3333 25.4293 29.3333 22.2853 29.3333 16C29.3333 9.71467 29.3333 6.572 27.38 4.61867C25.4293 2.66667 22.2853 2.66667 16 2.66667C9.71463 2.66667 6.57196 2.66667 4.61863 4.61867C2.66663 6.57333 2.66663 9.71467 2.66663 16C2.66663 22.2853 2.66663 25.4293 4.61863 27.3813ZM25 21.3333C25 21.5985 24.8946 21.8529 24.7071 22.0404C24.5195 22.228 24.2652 22.3333 24 22.3333H7.99996C7.73474 22.3333 7.48039 22.228 7.29285 22.0404C7.10532 21.8529 6.99996 21.5985 6.99996 21.3333C6.99996 21.0681 7.10532 20.8138 7.29285 20.6262C7.48039 20.4387 7.73474 20.3333 7.99996 20.3333H24C24.2652 20.3333 24.5195 20.4387 24.7071 20.6262C24.8946 20.8138 25 21.0681 25 21.3333ZM24 17C24.2652 17 24.5195 16.8946 24.7071 16.7071C24.8946 16.5196 25 16.2652 25 16C25 15.7348 24.8946 15.4804 24.7071 15.2929C24.5195 15.1054 24.2652 15 24 15H7.99996C7.73474 15 7.48039 15.1054 7.29285 15.2929C7.10532 15.4804 6.99996 15.7348 6.99996 16C6.99996 16.2652 7.10532 16.5196 7.29285 16.7071C7.48039 16.8946 7.73474 17 7.99996 17H24ZM25 10.6667C25 10.9319 24.8946 11.1862 24.7071 11.3738C24.5195 11.5613 24.2652 11.6667 24 11.6667H7.99996C7.73474 11.6667 7.48039 11.5613 7.29285 11.3738C7.10532 11.1862 6.99996 10.9319 6.99996 10.6667C6.99996 10.4014 7.10532 10.1471 7.29285 9.95956C7.48039 9.77202 7.73474 9.66667 7.99996 9.66667H24C24.2652 9.66667 24.5195 9.77202 24.7071 9.95956C24.8946 10.1471 25 10.4014 25 10.6667Z" fill="#151515"/>
</svg>
